<svg width="328" height="133" viewBox="0 0 328 133" fill="none" xmlns="http://www.w3.org/2000/svg">
<g filter="url(#filter0_ddd_1_115)">
<rect x="5" y="99" width="98" height="318" transform="rotate(-90 5 99)" stroke="black" stroke-width="2"/>
<line x1="250.5" x2="250.5" y2="34" stroke="black"/>
<line x1="225" y1="33.5" x2="250" y2="33.5" stroke="black"/>
<line x1="225" y1="99.0038" x2="225" y2="32.9962" stroke="black"/>
<path d="M286.47 33.105C285.78 33.105 285.16 32.985 284.61 32.745C284.07 32.495 283.645 32.155 283.335 31.725C283.025 31.285 282.865 30.78 282.855 30.21H284.31C284.36 30.7 284.56 31.115 284.91 31.455C285.27 31.785 285.79 31.95 286.47 31.95C287.12 31.95 287.63 31.79 288 31.47C288.38 31.14 288.57 30.72 288.57 30.21C288.57 29.81 288.46 29.485 288.24 29.235C288.02 28.985 287.745 28.795 287.415 28.665C287.085 28.535 286.64 28.395 286.08 28.245C285.39 28.065 284.835 27.885 284.415 27.705C284.005 27.525 283.65 27.245 283.35 26.865C283.06 26.475 282.915 25.955 282.915 25.305C282.915 24.735 283.06 24.23 283.35 23.79C283.64 23.35 284.045 23.01 284.565 22.77C285.095 22.53 285.7 22.41 286.38 22.41C287.36 22.41 288.16 22.655 288.78 23.145C289.41 23.635 289.765 24.285 289.845 25.095H288.345C288.295 24.695 288.085 24.345 287.715 24.045C287.345 23.735 286.855 23.58 286.245 23.58C285.675 23.58 285.21 23.73 284.85 24.03C284.49 24.32 284.31 24.73 284.31 25.26C284.31 25.64 284.415 25.95 284.625 26.19C284.845 26.43 285.11 26.615 285.42 26.745C285.74 26.865 286.185 27.005 286.755 27.165C287.445 27.355 288 27.545 288.42 27.735C288.84 27.915 289.2 28.2 289.5 28.59C289.8 28.97 289.95 29.49 289.95 30.15C289.95 30.66 289.815 31.14 289.545 31.59C289.275 32.04 288.875 32.405 288.345 32.685C287.815 32.965 287.19 33.105 286.47 33.105Z" fill="black"/>
<path d="M147.47 33.105C146.78 33.105 146.16 32.985 145.61 32.745C145.07 32.495 144.645 32.155 144.335 31.725C144.025 31.285 143.865 30.78 143.855 30.21H145.31C145.36 30.7 145.56 31.115 145.91 31.455C146.27 31.785 146.79 31.95 147.47 31.95C148.12 31.95 148.63 31.79 149 31.47C149.38 31.14 149.57 30.72 149.57 30.21C149.57 29.81 149.46 29.485 149.24 29.235C149.02 28.985 148.745 28.795 148.415 28.665C148.085 28.535 147.64 28.395 147.08 28.245C146.39 28.065 145.835 27.885 145.415 27.705C145.005 27.525 144.65 27.245 144.35 26.865C144.06 26.475 143.915 25.955 143.915 25.305C143.915 24.735 144.06 24.23 144.35 23.79C144.64 23.35 145.045 23.01 145.565 22.77C146.095 22.53 146.7 22.41 147.38 22.41C148.36 22.41 149.16 22.655 149.78 23.145C150.41 23.635 150.765 24.285 150.845 25.095H149.345C149.295 24.695 149.085 24.345 148.715 24.045C148.345 23.735 147.855 23.58 147.245 23.58C146.675 23.58 146.21 23.73 145.85 24.03C145.49 24.32 145.31 24.73 145.31 25.26C145.31 25.64 145.415 25.95 145.625 26.19C145.845 26.43 146.11 26.615 146.42 26.745C146.74 26.865 147.185 27.005 147.755 27.165C148.445 27.355 149 27.545 149.42 27.735C149.84 27.915 150.2 28.2 150.5 28.59C150.8 28.97 150.95 29.49 150.95 30.15C150.95 30.66 150.815 31.14 150.545 31.59C150.275 32.04 149.875 32.405 149.345 32.685C148.815 32.965 148.19 33.105 147.47 33.105Z" fill="black"/>
<path d="M134.825 93L130.52 88.23V93H129.155V82.545H130.52V87.39L134.84 82.545H136.565L131.825 87.78L136.61 93H134.825Z" fill="black"/>
<path d="M58.295 38.545L55.265 49H53.735L51.305 40.585L48.785 49L47.27 49.015L44.345 38.545H45.8L48.08 47.41L50.6 38.545H52.13L54.53 47.38L56.825 38.545H58.295Z" fill="black"/>
<path d="M208.39 27.615C208.77 27.675 209.115 27.83 209.425 28.08C209.745 28.33 209.995 28.64 210.175 29.01C210.365 29.38 210.46 29.775 210.46 30.195C210.46 30.725 210.325 31.205 210.055 31.635C209.785 32.055 209.39 32.39 208.87 32.64C208.36 32.88 207.755 33 207.055 33H203.155V22.545H206.905C207.615 22.545 208.22 22.665 208.72 22.905C209.22 23.135 209.595 23.45 209.845 23.85C210.095 24.25 210.22 24.7 210.22 25.2C210.22 25.82 210.05 26.335 209.71 26.745C209.38 27.145 208.94 27.435 208.39 27.615ZM204.52 27.06H206.815C207.455 27.06 207.95 26.91 208.3 26.61C208.65 26.31 208.825 25.895 208.825 25.365C208.825 24.835 208.65 24.42 208.3 24.12C207.95 23.82 207.445 23.67 206.785 23.67H204.52V27.06ZM206.935 31.875C207.615 31.875 208.145 31.715 208.525 31.395C208.905 31.075 209.095 30.63 209.095 30.06C209.095 29.48 208.895 29.025 208.495 28.695C208.095 28.355 207.56 28.185 206.89 28.185H204.52V31.875H206.935Z" fill="black"/>
<line x1="225" y1="50.5" x2="110" y2="50.5" stroke="black"/>
<path d="M185.5 2V50" stroke="black"/>
<line x1="109.5" y1="51" x2="109.5" y2="1" stroke="black"/>
<path d="M130.4 7.7H116.6C115.647 7.7 114.875 9.28491 114.875 11.24V39.56C114.875 41.5151 115.647 43.1 116.6 43.1H130.4C131.353 43.1 132.125 41.5151 132.125 39.56V11.24C132.125 9.28491 131.353 7.7 130.4 7.7Z" fill="white" stroke="black"/>
<path d="M130.975 19.5H116.025C115.39 19.5 114.875 20.5566 114.875 21.86V40.74C114.875 42.0434 115.39 43.1 116.025 43.1H130.975C131.61 43.1 132.125 42.0434 132.125 40.74V21.86C132.125 20.5566 131.61 19.5 130.975 19.5Z" fill="white" stroke="black"/>
<path d="M119.188 13.895C119.188 11.7317 120.625 10.65 123.5 10.65C126.375 10.65 127.812 11.7317 127.812 13.895C127.812 16.0583 126.375 17.14 123.5 17.14C120.625 17.14 119.188 16.0583 119.188 13.895Z" fill="white" stroke="black"/>
<path d="M179.4 7.7H165.6C164.647 7.7 163.875 9.28491 163.875 11.24V39.56C163.875 41.5151 164.647 43.1 165.6 43.1H179.4C180.353 43.1 181.125 41.5151 181.125 39.56V11.24C181.125 9.28491 180.353 7.7 179.4 7.7Z" fill="white" stroke="black"/>
<path d="M179.975 19.5H165.025C164.39 19.5 163.875 20.5566 163.875 21.86V40.74C163.875 42.0434 164.39 43.1 165.025 43.1H179.975C180.61 43.1 181.125 42.0434 181.125 40.74V21.86C181.125 20.5566 180.61 19.5 179.975 19.5Z" fill="white" stroke="black"/>
<path d="M168.188 13.895C168.188 11.7317 169.625 10.65 172.5 10.65C175.375 10.65 176.812 11.7317 176.812 13.895C176.812 16.0583 175.375 17.14 172.5 17.14C169.625 17.14 168.188 16.0583 168.188 13.895Z" fill="white" stroke="black"/>
<rect x="225.25" y="6.25" width="21.5" height="21.5" stroke="black" stroke-width="0.5"/>
<g clip-path="url(#clip0_1_115)">
<path d="M243.995 9.60276V11.2489C244.241 11.505 244.6 11.6662 245 11.6662V9.18576C244.6 9.18576 244.241 9.34699 243.995 9.60276Z" fill="black"/>
<path d="M235.542 13.4517C235.441 13.6212 235.508 13.8342 235.692 13.9279L240.097 16.1706C240.281 16.2638 240.512 16.2022 240.613 16.0326L240.789 15.738L235.718 13.1571L235.542 13.4517Z" fill="black"/>
<path d="M240.018 12.8458L240.164 12.601C240.239 12.4755 240.19 12.3175 240.054 12.2482L239.308 11.8687C239.172 11.7993 239.001 11.845 238.926 11.9707L238.78 12.2157C237.723 11.9509 236.586 12.2475 235.837 12.9818L240.887 15.5522C241.159 14.5751 240.824 13.5296 240.018 12.8458Z" fill="black"/>
<path d="M232.04 17C231.954 17.1442 232.011 17.3251 232.167 17.4045C232.323 17.484 232.519 17.4315 232.605 17.2876C232.691 17.1437 232.6 16.6793 232.6 16.6793C232.6 16.6793 232.126 16.8561 232.04 17Z" fill="black"/>
<path d="M233.697 17.8433C233.611 17.9872 233.667 18.1684 233.823 18.2476C233.98 18.327 234.175 18.2748 234.261 18.1307C234.347 17.9868 234.257 17.5226 234.257 17.5226C234.257 17.5226 233.783 17.6992 233.697 17.8433Z" fill="black"/>
<path d="M235.353 18.6863C235.267 18.8303 235.324 19.0114 235.48 19.0909C235.636 19.1703 235.832 19.1181 235.918 18.9739C236.004 18.83 235.913 18.3658 235.913 18.3658C235.913 18.3656 235.439 18.5424 235.353 18.6863Z" fill="black"/>
<path d="M237.01 19.5296C236.924 19.6735 236.981 19.8547 237.137 19.9341C237.292 20.0136 237.489 19.9611 237.575 19.817C237.661 19.6731 237.57 19.2089 237.57 19.2089C237.57 19.2089 237.096 19.3857 237.01 19.5296Z" fill="black"/>
<path d="M238.667 20.3729C238.58 20.5168 238.637 20.698 238.793 20.7772C238.949 20.8566 239.145 20.8042 239.231 20.6602C239.317 20.5163 239.226 20.0521 239.226 20.0521C239.226 20.0521 238.753 20.229 238.667 20.3729Z" fill="black"/>
<path d="M233.818 16.4479C233.974 16.5273 234.171 16.4748 234.257 16.3309C234.343 16.1868 234.252 15.7226 234.252 15.7226C234.252 15.7226 233.778 15.8994 233.692 16.0433C233.606 16.1875 233.663 16.3684 233.818 16.4479Z" fill="black"/>
<path d="M235.475 17.2911C235.631 17.3705 235.827 17.3181 235.913 17.174C235.999 17.0301 235.908 16.5659 235.908 16.5659C235.908 16.5659 235.434 16.7427 235.348 16.8866C235.262 17.0305 235.319 17.2117 235.475 17.2911Z" fill="black"/>
<path d="M237.132 18.1342C237.288 18.2136 237.484 18.1614 237.57 18.0173C237.656 17.8733 237.565 17.4091 237.565 17.4091C237.565 17.4091 237.091 17.5857 237.005 17.7299C236.919 17.8738 236.976 18.0548 237.132 18.1342Z" fill="black"/>
<path d="M238.788 18.9774C238.944 19.0567 239.14 19.0044 239.226 18.8605C239.312 18.7166 239.221 18.2524 239.221 18.2524C239.221 18.2524 238.748 18.429 238.662 18.5729C238.576 18.7168 238.632 18.898 238.788 18.9774Z" fill="black"/>
<path d="M235.826 15.5114C235.912 15.3674 235.821 14.9033 235.821 14.9033C235.821 14.9033 235.347 15.0799 235.261 15.224C235.175 15.3681 235.232 15.5491 235.388 15.6283C235.544 15.7077 235.74 15.6555 235.826 15.5114Z" fill="black"/>
<path d="M237.483 16.3546C237.569 16.2107 237.478 15.7465 237.478 15.7465C237.478 15.7465 237.004 15.9231 236.918 16.0673C236.832 16.2112 236.889 16.3922 237.045 16.4716C237.201 16.551 237.397 16.4988 237.483 16.3546Z" fill="black"/>
<path d="M239.139 17.1979C239.225 17.0538 239.134 16.5896 239.134 16.5896C239.134 16.5896 238.66 16.7664 238.574 16.9103C238.489 17.0542 238.545 17.2354 238.701 17.3148C238.857 17.3942 239.053 17.3418 239.139 17.1979Z" fill="black"/>
<path d="M241.223 10.3214C240.549 10.5849 239.976 11.0239 239.572 11.5769C239.556 11.598 239.541 11.6195 239.526 11.641L240.179 11.9731C240.179 11.9731 240.18 11.9734 240.18 11.9735C240.398 11.6728 240.677 11.4128 241.002 11.2106C241.483 10.9107 242.06 10.7363 242.685 10.7359H243.667V10.049H242.685C242.167 10.049 241.672 10.146 241.223 10.3214Z" fill="black"/>
</g>
<path d="M192.59 7.23527C192.59 7.14486 192.676 7.07235 192.782 7.07235C192.889 7.07235 192.975 7.14575 192.975 7.23527V10.2189C192.975 10.3093 192.888 10.3818 192.782 10.3818H190.499C190.393 10.3827 190.307 10.3093 190.307 10.2198V5.35091C190.307 5.25513 190.353 5.1674 190.428 5.10295L190.429 5.10205C190.505 5.03939 190.608 5 190.722 5H192.56C192.673 5 192.778 5.03939 192.853 5.10384C192.928 5.1674 192.975 5.25513 192.975 5.35181V5.76538C192.975 5.85579 192.888 5.9283 192.782 5.9283C192.675 5.9283 192.59 5.8549 192.59 5.76538V5.35091C192.59 5.34465 192.586 5.33838 192.581 5.33301C192.576 5.32853 192.568 5.32585 192.56 5.32585H190.722C190.714 5.32585 190.706 5.32853 190.701 5.33301L190.7 5.3339C190.695 5.33838 190.692 5.34465 190.692 5.35181V10.0569H192.59V7.23527ZM192.589 13.9411L190.329 10.295C190.28 10.2153 190.316 10.1178 190.41 10.0757C190.439 10.0632 190.469 10.0569 190.499 10.0569V10.056H200.5C200.607 10.056 200.692 10.1294 200.692 10.2189C200.692 10.2252 200.692 10.2314 200.691 10.2377C200.637 12.1838 199.51 12.7317 198.561 13.1918C198.006 13.4613 197.521 13.6967 197.43 14.1953L197.429 14.1998C197.394 14.3949 197.413 14.6187 197.486 14.8721C197.562 15.1361 197.696 15.4333 197.892 15.7637C197.94 15.8442 197.9 15.9418 197.805 15.9821C197.778 15.9937 197.748 15.9991 197.72 15.9991H191.683C191.576 15.9991 191.49 15.9257 191.49 15.8362C191.49 15.8048 191.501 15.7753 191.52 15.7502L192.589 13.9411ZM190.818 10.3827L192.975 13.8641C193.002 13.9089 193.004 13.9635 192.976 14.0118L191.994 15.6742H197.415C197.277 15.4154 197.177 15.1737 197.112 14.95C197.027 14.6527 197.005 14.3869 197.048 14.1523L197.049 14.147C197.168 13.4935 197.729 13.2214 198.369 12.9107C199.207 12.5043 200.198 12.0227 200.301 10.3836H190.818V10.3827ZM192.804 14.1022C192.698 14.1022 192.612 14.0288 192.612 13.9393C192.612 13.8489 192.699 13.7764 192.804 13.7764H194.909C195.015 13.7764 195.101 13.8498 195.101 13.9393C195.101 14.0297 195.014 14.1022 194.909 14.1022H192.804ZM192.974 10.244C192.958 10.3326 192.859 10.3944 192.755 10.3809C192.65 10.3675 192.577 10.2843 192.593 10.1956C192.623 10.0273 192.673 9.87516 192.743 9.74178C192.816 9.60303 192.91 9.48576 193.025 9.38997C193.4 9.08024 193.876 9.0874 194.331 9.09456C194.371 9.09546 194.41 9.09546 194.513 9.09546H198.635C199.612 9.09009 200.696 9.08382 200.69 10.2592C200.69 10.3487 200.605 10.4212 200.499 10.4212C200.393 10.4212 200.307 10.3487 200.307 10.2592C200.312 9.41056 199.431 9.41593 198.638 9.42041C198.518 9.4213 198.521 9.4222 198.451 9.4222H194.514L194.326 9.41951C193.949 9.41414 193.554 9.40788 193.294 9.62362C193.213 9.69075 193.147 9.77401 193.094 9.87337C193.039 9.97721 192.999 10.1007 192.974 10.244ZM191.928 5.99992C192.228 5.99992 192.47 6.20492 192.47 6.45825C192.47 6.71159 192.228 6.91659 191.928 6.91659C191.629 6.91659 191.387 6.71159 191.387 6.45825C191.387 6.20492 191.63 5.99992 191.928 5.99992ZM192.47 6.62118C192.363 6.62118 192.278 6.54777 192.278 6.45825C192.278 6.36784 192.364 6.29533 192.47 6.29533H193.769C193.876 6.29533 193.962 6.36873 193.962 6.45825C193.962 6.54867 193.875 6.62118 193.769 6.62118H192.47Z" fill="black"/>
<mask id="path-37-inside-1_1_115" fill="white">
<path d="M273.649 82.6342H318.305V80.7183C318.305 80.2548 318.219 79.824 318.066 79.4384C317.902 79.0281 317.66 78.663 317.359 78.3471C317.176 78.1543 316.969 77.9779 316.746 77.822C316.519 77.662 316.277 77.5225 316.023 77.4035C315.339 77.2476 314.66 77.1 313.984 76.9605C313.304 76.821 312.62 76.6897 311.933 76.5666C311.902 76.5625 311.878 76.5584 311.847 76.5502C311.499 76.4887 311.167 76.4313 310.851 76.3779C310.534 76.3246 310.198 76.2713 309.847 76.2138H309.839C307.448 75.8938 305.065 75.6477 302.686 75.4836C300.303 75.3195 297.932 75.2374 295.576 75.2333C294.178 75.2333 292.783 75.258 291.388 75.3154C290.001 75.3728 288.607 75.4549 287.212 75.5697H287.204C285.9 75.6969 284.599 75.8569 283.294 76.0415C281.993 76.2261 280.688 76.4436 279.376 76.6856L279.231 76.7225C279.204 76.7307 279.176 76.7348 279.153 76.7348C279.129 76.7389 279.106 76.7389 279.083 76.7389C278.469 76.8538 277.84 76.981 277.192 77.1164C276.563 77.2476 275.934 77.3871 275.309 77.5307C275.153 77.621 275.004 77.7235 274.864 77.8302C274.723 77.941 274.586 78.0599 274.465 78.1871C274.203 78.462 273.996 78.7779 273.856 79.1307C273.723 79.463 273.649 79.8322 273.649 80.2342V82.6342ZM277.547 55H313.875C314.347 55 314.8 55.0985 315.214 55.279C315.644 55.4677 316.031 55.7425 316.355 56.0789C316.679 56.4195 316.941 56.8256 317.117 57.2769C317.289 57.7117 317.383 58.1876 317.383 58.684V76.1974C317.582 76.3205 317.777 76.4559 317.957 76.6036C318.16 76.7677 318.351 76.94 318.527 77.1246C318.98 77.6005 319.348 78.1543 319.594 78.7779C319.828 79.3645 319.957 80.0168 319.957 80.7224V83.2208C319.969 83.2619 319.98 83.3029 319.988 83.3439V83.3521C319.996 83.4054 320 83.4547 320 83.5039C320 83.5572 319.996 83.6106 319.984 83.6639C319.977 83.7049 319.965 83.7459 319.953 83.787V95.1344C319.953 95.3723 319.859 95.5898 319.711 95.7456C319.562 95.9015 319.355 96 319.129 96H317.429C317.238 96 317.062 95.9303 316.922 95.8154C316.781 95.7005 316.676 95.5364 316.633 95.3477C316.32 94.4041 316.004 93.6575 315.664 93.0749C315.328 92.5006 314.968 92.0904 314.554 91.7991C314.136 91.5078 313.636 91.3232 313.031 91.2124C312.413 91.0976 311.695 91.0606 310.839 91.0647L279.68 91.1058H279.665C279.051 91.0935 278.547 91.1755 278.125 91.3478C277.707 91.5201 277.368 91.7786 277.086 92.1109C276.77 92.4801 276.504 92.9519 276.262 93.5016C276.016 94.0636 275.793 94.7036 275.571 95.4051C275.516 95.5856 275.407 95.7292 275.27 95.8318C275.141 95.9303 274.985 95.9877 274.824 95.9959C274.813 96 274.801 96 274.789 96H272.824C272.598 96 272.391 95.9015 272.242 95.7456C272.094 95.5898 272 95.3723 272 95.1344V80.2383C272 79.5943 272.117 79.0035 272.328 78.4702C272.555 77.904 272.887 77.3994 273.301 76.9646C273.418 76.8415 273.547 76.7184 273.684 76.6036C273.801 76.5051 273.918 76.4107 274.043 76.3246V58.6471C274.043 58.1507 274.137 57.6789 274.309 57.2523C274.488 56.8051 274.75 56.403 275.074 56.0666C275.399 55.7302 275.785 55.4636 276.211 55.279C276.625 55.0985 277.075 55 277.547 55ZM313.875 56.7312H277.547C277.293 56.7312 277.051 56.7846 276.829 56.8789C276.598 56.9774 276.395 57.121 276.223 57.2974C276.055 57.4697 275.918 57.683 275.825 57.9127C275.739 58.1384 275.692 58.3845 275.692 58.6471V75.4918C275.809 75.4508 275.926 75.4179 276.047 75.3851C276.239 75.3318 276.43 75.2867 276.621 75.2539C276.887 75.2046 277.176 75.1513 277.489 75.0939C277.723 75.0528 277.973 75.0077 278.231 74.9667V70.6673C278.231 70.0191 278.356 69.3996 278.579 68.8335C278.813 68.2427 279.153 67.7135 279.575 67.2705C279.997 66.8274 280.501 66.4705 281.063 66.2243C281.602 65.9905 282.192 65.8592 282.809 65.8592H290.552C291.17 65.8592 291.759 65.9905 292.299 66.2243C292.861 66.4705 293.365 66.8274 293.787 67.2705C294.209 67.7135 294.549 68.2427 294.783 68.8335C295.006 69.3996 295.131 70.0191 295.131 70.6673V73.4118C295.404 73.4077 295.678 73.4077 295.955 73.4077V70.6673C295.955 70.0191 296.08 69.3996 296.303 68.8335C296.537 68.2427 296.877 67.7135 297.299 67.2705C297.721 66.8274 298.225 66.4705 298.787 66.2243C299.326 65.9905 299.916 65.8592 300.534 65.8592H308.276C308.894 65.8592 309.484 65.9905 310.023 66.2243C310.585 66.4705 311.089 66.8274 311.511 67.2705C311.933 67.7135 312.273 68.2427 312.507 68.8335C312.73 69.3996 312.855 70.0191 312.855 70.6673V74.9092C313.148 74.9544 313.46 75.0077 313.796 75.0651C314.167 75.1267 314.523 75.1882 314.867 75.2497C315.043 75.2826 315.222 75.3195 315.402 75.3646C315.515 75.3933 315.625 75.4221 315.73 75.4549V58.684C315.73 58.4215 315.679 58.1712 315.589 57.9415C315.496 57.7035 315.355 57.4902 315.183 57.3056C315.011 57.1251 314.804 56.9774 314.582 56.8789C314.363 56.7846 314.125 56.7312 313.875 56.7312ZM288.88 73.6908C289.665 73.6293 290.455 73.5759 291.255 73.5349C291.994 73.4939 292.74 73.4652 293.486 73.4447V70.6673C293.486 70.253 293.408 69.855 293.263 69.494C293.115 69.1166 292.896 68.7802 292.623 68.493C292.353 68.2099 292.029 67.9802 291.67 67.8202C291.326 67.6684 290.947 67.5864 290.552 67.5864H282.809C282.415 67.5864 282.036 67.6684 281.692 67.8202C281.333 67.9761 281.012 68.2058 280.739 68.493C280.469 68.7761 280.251 69.1166 280.098 69.494C279.954 69.855 279.876 70.253 279.876 70.6673V74.6918C280.509 74.5934 281.149 74.5031 281.805 74.4128C282.513 74.3185 283.216 74.2323 283.911 74.1503C284.181 74.1175 284.47 74.0805 284.771 74.0477C285.052 74.0149 285.345 73.9862 285.657 73.9534C286.189 73.9 286.716 73.8508 287.236 73.8057C287.771 73.7688 288.318 73.7277 288.88 73.6908ZM297.604 73.4201C298.076 73.4283 298.549 73.4406 299.022 73.457C299.545 73.4734 300.069 73.498 300.588 73.5226H300.592C301.448 73.5554 302.284 73.5965 303.096 73.6457C303.909 73.6949 304.702 73.7565 305.46 73.8262C306.561 73.9288 307.628 74.0518 308.64 74.1954C309.546 74.3267 310.405 74.4744 311.21 74.6385V70.6673C311.21 70.253 311.132 69.855 310.988 69.494C310.839 69.1166 310.62 68.7802 310.347 68.493C310.077 68.2099 309.753 67.9802 309.394 67.8202C309.05 67.6684 308.671 67.5864 308.276 67.5864H300.537C300.143 67.5864 299.764 67.6684 299.42 67.8202C299.061 67.9761 298.74 68.2058 298.467 68.493C298.197 68.7761 297.979 69.1166 297.826 69.494C297.682 69.855 297.604 70.253 297.604 70.6673V73.4201ZM318.308 84.3695H273.649V94.2688H274.207C274.426 93.6206 274.653 93.0175 274.906 92.4801C275.18 91.9057 275.489 91.397 275.864 90.9581C276.309 90.433 276.832 90.0268 277.461 89.7561C278.09 89.4894 278.825 89.354 279.708 89.3745L310.839 89.3335C311.843 89.3335 312.703 89.3827 313.453 89.5345C314.214 89.6863 314.871 89.9448 315.461 90.355C316.007 90.7365 316.476 91.2411 316.898 91.9016C317.301 92.5334 317.66 93.3088 318.004 94.2647H318.301V84.3695H318.308Z"/>
</mask>
<path d="M273.649 82.6342H318.305V80.7183C318.305 80.2548 318.219 79.824 318.066 79.4384C317.902 79.0281 317.66 78.663 317.359 78.3471C317.176 78.1543 316.969 77.9779 316.746 77.822C316.519 77.662 316.277 77.5225 316.023 77.4035C315.339 77.2476 314.66 77.1 313.984 76.9605C313.304 76.821 312.62 76.6897 311.933 76.5666C311.902 76.5625 311.878 76.5584 311.847 76.5502C311.499 76.4887 311.167 76.4313 310.851 76.3779C310.534 76.3246 310.198 76.2713 309.847 76.2138H309.839C307.448 75.8938 305.065 75.6477 302.686 75.4836C300.303 75.3195 297.932 75.2374 295.576 75.2333C294.178 75.2333 292.783 75.258 291.388 75.3154C290.001 75.3728 288.607 75.4549 287.212 75.5697H287.204C285.9 75.6969 284.599 75.8569 283.294 76.0415C281.993 76.2261 280.688 76.4436 279.376 76.6856L279.231 76.7225C279.204 76.7307 279.176 76.7348 279.153 76.7348C279.129 76.7389 279.106 76.7389 279.083 76.7389C278.469 76.8538 277.84 76.981 277.192 77.1164C276.563 77.2476 275.934 77.3871 275.309 77.5307C275.153 77.621 275.004 77.7235 274.864 77.8302C274.723 77.941 274.586 78.0599 274.465 78.1871C274.203 78.462 273.996 78.7779 273.856 79.1307C273.723 79.463 273.649 79.8322 273.649 80.2342V82.6342ZM277.547 55H313.875C314.347 55 314.8 55.0985 315.214 55.279C315.644 55.4677 316.031 55.7425 316.355 56.0789C316.679 56.4195 316.941 56.8256 317.117 57.2769C317.289 57.7117 317.383 58.1876 317.383 58.684V76.1974C317.582 76.3205 317.777 76.4559 317.957 76.6036C318.16 76.7677 318.351 76.94 318.527 77.1246C318.98 77.6005 319.348 78.1543 319.594 78.7779C319.828 79.3645 319.957 80.0168 319.957 80.7224V83.2208C319.969 83.2619 319.98 83.3029 319.988 83.3439V83.3521C319.996 83.4054 320 83.4547 320 83.5039C320 83.5572 319.996 83.6106 319.984 83.6639C319.977 83.7049 319.965 83.7459 319.953 83.787V95.1344C319.953 95.3723 319.859 95.5898 319.711 95.7456C319.562 95.9015 319.355 96 319.129 96H317.429C317.238 96 317.062 95.9303 316.922 95.8154C316.781 95.7005 316.676 95.5364 316.633 95.3477C316.32 94.4041 316.004 93.6575 315.664 93.0749C315.328 92.5006 314.968 92.0904 314.554 91.7991C314.136 91.5078 313.636 91.3232 313.031 91.2124C312.413 91.0976 311.695 91.0606 310.839 91.0647L279.68 91.1058H279.665C279.051 91.0935 278.547 91.1755 278.125 91.3478C277.707 91.5201 277.368 91.7786 277.086 92.1109C276.77 92.4801 276.504 92.9519 276.262 93.5016C276.016 94.0636 275.793 94.7036 275.571 95.4051C275.516 95.5856 275.407 95.7292 275.27 95.8318C275.141 95.9303 274.985 95.9877 274.824 95.9959C274.813 96 274.801 96 274.789 96H272.824C272.598 96 272.391 95.9015 272.242 95.7456C272.094 95.5898 272 95.3723 272 95.1344V80.2383C272 79.5943 272.117 79.0035 272.328 78.4702C272.555 77.904 272.887 77.3994 273.301 76.9646C273.418 76.8415 273.547 76.7184 273.684 76.6036C273.801 76.5051 273.918 76.4107 274.043 76.3246V58.6471C274.043 58.1507 274.137 57.6789 274.309 57.2523C274.488 56.8051 274.75 56.403 275.074 56.0666C275.399 55.7302 275.785 55.4636 276.211 55.279C276.625 55.0985 277.075 55 277.547 55ZM313.875 56.7312H277.547C277.293 56.7312 277.051 56.7846 276.829 56.8789C276.598 56.9774 276.395 57.121 276.223 57.2974C276.055 57.4697 275.918 57.683 275.825 57.9127C275.739 58.1384 275.692 58.3845 275.692 58.6471V75.4918C275.809 75.4508 275.926 75.4179 276.047 75.3851C276.239 75.3318 276.43 75.2867 276.621 75.2539C276.887 75.2046 277.176 75.1513 277.489 75.0939C277.723 75.0528 277.973 75.0077 278.231 74.9667V70.6673C278.231 70.0191 278.356 69.3996 278.579 68.8335C278.813 68.2427 279.153 67.7135 279.575 67.2705C279.997 66.8274 280.501 66.4705 281.063 66.2243C281.602 65.9905 282.192 65.8592 282.809 65.8592H290.552C291.17 65.8592 291.759 65.9905 292.299 66.2243C292.861 66.4705 293.365 66.8274 293.787 67.2705C294.209 67.7135 294.549 68.2427 294.783 68.8335C295.006 69.3996 295.131 70.0191 295.131 70.6673V73.4118C295.404 73.4077 295.678 73.4077 295.955 73.4077V70.6673C295.955 70.0191 296.08 69.3996 296.303 68.8335C296.537 68.2427 296.877 67.7135 297.299 67.2705C297.721 66.8274 298.225 66.4705 298.787 66.2243C299.326 65.9905 299.916 65.8592 300.534 65.8592H308.276C308.894 65.8592 309.484 65.9905 310.023 66.2243C310.585 66.4705 311.089 66.8274 311.511 67.2705C311.933 67.7135 312.273 68.2427 312.507 68.8335C312.73 69.3996 312.855 70.0191 312.855 70.6673V74.9092C313.148 74.9544 313.46 75.0077 313.796 75.0651C314.167 75.1267 314.523 75.1882 314.867 75.2497C315.043 75.2826 315.222 75.3195 315.402 75.3646C315.515 75.3933 315.625 75.4221 315.73 75.4549V58.684C315.73 58.4215 315.679 58.1712 315.589 57.9415C315.496 57.7035 315.355 57.4902 315.183 57.3056C315.011 57.1251 314.804 56.9774 314.582 56.8789C314.363 56.7846 314.125 56.7312 313.875 56.7312ZM288.88 73.6908C289.665 73.6293 290.455 73.5759 291.255 73.5349C291.994 73.4939 292.74 73.4652 293.486 73.4447V70.6673C293.486 70.253 293.408 69.855 293.263 69.494C293.115 69.1166 292.896 68.7802 292.623 68.493C292.353 68.2099 292.029 67.9802 291.67 67.8202C291.326 67.6684 290.947 67.5864 290.552 67.5864H282.809C282.415 67.5864 282.036 67.6684 281.692 67.8202C281.333 67.9761 281.012 68.2058 280.739 68.493C280.469 68.7761 280.251 69.1166 280.098 69.494C279.954 69.855 279.876 70.253 279.876 70.6673V74.6918C280.509 74.5934 281.149 74.5031 281.805 74.4128C282.513 74.3185 283.216 74.2323 283.911 74.1503C284.181 74.1175 284.47 74.0805 284.771 74.0477C285.052 74.0149 285.345 73.9862 285.657 73.9534C286.189 73.9 286.716 73.8508 287.236 73.8057C287.771 73.7688 288.318 73.7277 288.88 73.6908ZM297.604 73.4201C298.076 73.4283 298.549 73.4406 299.022 73.457C299.545 73.4734 300.069 73.498 300.588 73.5226H300.592C301.448 73.5554 302.284 73.5965 303.096 73.6457C303.909 73.6949 304.702 73.7565 305.46 73.8262C306.561 73.9288 307.628 74.0518 308.64 74.1954C309.546 74.3267 310.405 74.4744 311.21 74.6385V70.6673C311.21 70.253 311.132 69.855 310.988 69.494C310.839 69.1166 310.62 68.7802 310.347 68.493C310.077 68.2099 309.753 67.9802 309.394 67.8202C309.05 67.6684 308.671 67.5864 308.276 67.5864H300.537C300.143 67.5864 299.764 67.6684 299.42 67.8202C299.061 67.9761 298.74 68.2058 298.467 68.493C298.197 68.7761 297.979 69.1166 297.826 69.494C297.682 69.855 297.604 70.253 297.604 70.6673V73.4201ZM318.308 84.3695H273.649V94.2688H274.207C274.426 93.6206 274.653 93.0175 274.906 92.4801C275.18 91.9057 275.489 91.397 275.864 90.9581C276.309 90.433 276.832 90.0268 277.461 89.7561C278.09 89.4894 278.825 89.354 279.708 89.3745L310.839 89.3335C311.843 89.3335 312.703 89.3827 313.453 89.5345C314.214 89.6863 314.871 89.9448 315.461 90.355C316.007 90.7365 316.476 91.2411 316.898 91.9016C317.301 92.5334 317.66 93.3088 318.004 94.2647H318.301V84.3695H318.308Z" fill="black" stroke="black" stroke-width="2" mask="url(#path-37-inside-1_1_115)"/>
<rect x="81.5" y="72.5" width="104" height="26" stroke="black"/>
<line x1="119" y1="101" x2="145" y2="101" stroke="black" stroke-width="4"/>
<mask id="path-40-inside-2_1_115" fill="white">
<path d="M197 100V101H193H189V100H197Z"/>
</mask>
<path d="M197 100V101H193H189V100H197Z" fill="black"/>
<path d="M197 101H198V102H197V101ZM197 100V99H198V100H197ZM189 100H188V99H189V100ZM189 101V102H188V101H189ZM197 101H196V100H197H198V101H197ZM197 100V101H189V100V99H197V100ZM189 100H190V101H189H188V100H189ZM189 101V100H193V101V102H189V101ZM193 101V100H197V101V102H193V101Z" fill="black" mask="url(#path-40-inside-2_1_115)"/>
<mask id="path-42-inside-3_1_115" fill="white">
<path d="M221 100V101H217H213V100H221Z"/>
</mask>
<path d="M221 100V101H217H213V100H221Z" fill="black"/>
<path d="M221 101H222V102H221V101ZM221 100V99H222V100H221ZM213 100H212V99H213V100ZM213 101V102H212V101H213ZM221 101H220V100H221H222V101H221ZM221 100V101H213V100V99H221V100ZM213 100H214V101H213H212V100H213ZM213 101V100H217V101V102H213V101ZM217 101V100H221V101V102H217V101Z" fill="black" mask="url(#path-42-inside-3_1_115)"/>
<path d="M193 124.05V100" stroke="black"/>
<path d="M193 123.634C196.853 124.235 200.861 124.094 204.613 123.227C208.365 122.359 211.726 120.795 214.352 118.695C216.978 116.596 218.775 114.036 219.558 111.278" stroke="black" stroke-dasharray="4 4"/>
<mask id="path-46-inside-4_1_115" fill="white">
<path d="M48 100V101H44H40V100H48Z"/>
</mask>
<path d="M48 100V101H44H40V100H48Z" fill="black"/>
<path d="M48 101H49V102H48V101ZM48 100V99H49V100H48ZM40 100H39V99H40V100ZM40 101V102H39V101H40ZM48 101H47V100H48H49V101H48ZM48 100V101H40V100V99H48V100ZM40 100H41V101H40H39V100H40ZM40 101V100H44V101V102H40V101ZM44 101V100H48V101V102H44V101Z" fill="black" mask="url(#path-46-inside-4_1_115)"/>
<mask id="path-48-inside-5_1_115" fill="white">
<path d="M72 100V101H68H64V100H72Z"/>
</mask>
<path d="M72 100V101H68H64V100H72Z" fill="black"/>
<path d="M72 101H73V102H72V101ZM72 100V99H73V100H72ZM64 100H63V99H64V100ZM64 101V102H63V101H64ZM72 101H71V100H72H73V101H72ZM72 100V101H64V100V99H72V100ZM64 100H65V101H64H63V100H64ZM64 101V100H68V101V102H64V101ZM68 101V100H72V101V102H68V101Z" fill="black" mask="url(#path-48-inside-5_1_115)"/>
<path d="M44 124.05V100" stroke="black"/>
<path d="M44 123.634C47.8532 124.235 51.8611 124.094 55.6131 123.227C59.3651 122.359 62.7263 120.795 65.3523 118.695C67.9783 116.596 69.7748 114.036 70.5575 111.278" stroke="black" stroke-dasharray="4 4"/>
<mask id="path-52-inside-6_1_115" fill="white">
<path d="M40 100V101H44H48V100H40Z"/>
</mask>
<path d="M40 100V101H44H48V100H40Z" fill="black"/>
<path d="M40 101H39V102H40V101ZM40 100V99H39V100H40ZM48 100H49V99H48V100ZM48 101V102H49V101H48ZM40 101H41V100H40H39V101H40ZM40 100V101H48V100V99H40V100ZM48 100H47V101H48H49V100H48ZM48 101V100H44V101V102H48V101ZM44 101V100H40V101V102H44V101Z" fill="black" mask="url(#path-52-inside-6_1_115)"/>
<mask id="path-54-inside-7_1_115" fill="white">
<path d="M16 100V101H20H24V100H16Z"/>
</mask>
<path d="M16 100V101H20H24V100H16Z" fill="black"/>
<path d="M16 101H15V102H16V101ZM16 100V99H15V100H16ZM24 100H25V99H24V100ZM24 101V102H25V101H24ZM16 101H17V100H16H15V101H16ZM16 100V101H24V100V99H16V100ZM24 100H23V101H24H25V100H24ZM24 101V100H20V101V102H24V101ZM20 101V100H16V101V102H20V101Z" fill="black" mask="url(#path-54-inside-7_1_115)"/>
<path d="M44 124.05V100" stroke="black"/>
<path d="M44 123.634C40.1468 124.235 36.1389 124.094 32.3869 123.227C28.6349 122.359 25.2737 120.795 22.6477 118.695C20.0217 116.596 18.2252 114.036 17.4425 111.278" stroke="black" stroke-dasharray="4 4"/>
</g>
<defs>
<filter id="filter0_ddd_1_115" x="0" y="0" width="328" height="132.444" filterUnits="userSpaceOnUse" color-interpolation-filters="sRGB">
<feFlood flood-opacity="0" result="BackgroundImageFix"/>
<feColorMatrix in="SourceAlpha" type="matrix" values="0 0 0 0 0 0 0 0 0 0 0 0 0 0 0 0 0 0 127 0" result="hardAlpha"/>
<feOffset dy="4"/>
<feGaussianBlur stdDeviation="2"/>
<feComposite in2="hardAlpha" operator="out"/>
<feColorMatrix type="matrix" values="0 0 0 0 0 0 0 0 0 0 0 0 0 0 0 0 0 0 0.25 0"/>
<feBlend mode="normal" in2="BackgroundImageFix" result="effect1_dropShadow_1_115"/>
<feColorMatrix in="SourceAlpha" type="matrix" values="0 0 0 0 0 0 0 0 0 0 0 0 0 0 0 0 0 0 127 0" result="hardAlpha"/>
<feOffset dy="4"/>
<feGaussianBlur stdDeviation="2"/>
<feComposite in2="hardAlpha" operator="out"/>
<feColorMatrix type="matrix" values="0 0 0 0 0 0 0 0 0 0 0 0 0 0 0 0 0 0 0.25 0"/>
<feBlend mode="normal" in2="effect1_dropShadow_1_115" result="effect2_dropShadow_1_115"/>
<feColorMatrix in="SourceAlpha" type="matrix" values="0 0 0 0 0 0 0 0 0 0 0 0 0 0 0 0 0 0 127 0" result="hardAlpha"/>
<feOffset dy="4"/>
<feGaussianBlur stdDeviation="2"/>
<feComposite in2="hardAlpha" operator="out"/>
<feColorMatrix type="matrix" values="0 0 0 0 0 0 0 0 0 0 0 0 0 0 0 0 0 0 0.25 0"/>
<feBlend mode="normal" in2="effect2_dropShadow_1_115" result="effect3_dropShadow_1_115"/>
<feBlend mode="normal" in="SourceGraphic" in2="effect3_dropShadow_1_115" result="shape"/>
</filter>
<clipPath id="clip0_1_115">
<rect width="13" height="12" fill="white" transform="translate(232 9)"/>
</clipPath>
</defs>
</svg>
