<svg width="328" height="133" viewBox="0 0 328 133" fill="none" xmlns="http://www.w3.org/2000/svg">
<g filter="url(#filter0_d_1_116)">
<rect x="-1" y="-1" width="98" height="318" transform="matrix(0 -1 -1 0 322 98)" stroke="black" stroke-width="2"/>
<line y1="-0.5" x2="34" y2="-0.5" transform="matrix(0 1 1 0 78 0)" stroke="black"/>
<line y1="-0.5" x2="25" y2="-0.5" transform="matrix(-1 -6.84596e-10 -6.84596e-10 1 103 34)" stroke="black"/>
<line y1="-0.5" x2="66.0076" y2="-0.5" transform="matrix(0 -1 -1 0 102.5 99.0038)" stroke="black"/>
<path d="M39.47 29.105C38.78 29.105 38.16 28.985 37.61 28.745C37.07 28.495 36.645 28.155 36.335 27.725C36.025 27.285 35.865 26.78 35.855 26.21H37.31C37.36 26.7 37.56 27.115 37.91 27.455C38.27 27.785 38.79 27.95 39.47 27.95C40.12 27.95 40.63 27.79 41 27.47C41.38 27.14 41.57 26.72 41.57 26.21C41.57 25.81 41.46 25.485 41.24 25.235C41.02 24.985 40.745 24.795 40.415 24.665C40.085 24.535 39.64 24.395 39.08 24.245C38.39 24.065 37.835 23.885 37.415 23.705C37.005 23.525 36.65 23.245 36.35 22.865C36.06 22.475 35.915 21.955 35.915 21.305C35.915 20.735 36.06 20.23 36.35 19.79C36.64 19.35 37.045 19.01 37.565 18.77C38.095 18.53 38.7 18.41 39.38 18.41C40.36 18.41 41.16 18.655 41.78 19.145C42.41 19.635 42.765 20.285 42.845 21.095H41.345C41.295 20.695 41.085 20.345 40.715 20.045C40.345 19.735 39.855 19.58 39.245 19.58C38.675 19.58 38.21 19.73 37.85 20.03C37.49 20.32 37.31 20.73 37.31 21.26C37.31 21.64 37.415 21.95 37.625 22.19C37.845 22.43 38.11 22.615 38.42 22.745C38.74 22.865 39.185 23.005 39.755 23.165C40.445 23.355 41 23.545 41.42 23.735C41.84 23.915 42.2 24.2 42.5 24.59C42.8 24.97 42.95 25.49 42.95 26.15C42.95 26.66 42.815 27.14 42.545 27.59C42.275 28.04 41.875 28.405 41.345 28.685C40.815 28.965 40.19 29.105 39.47 29.105Z" fill="black"/>
<path d="M176.47 27.105C175.78 27.105 175.16 26.985 174.61 26.745C174.07 26.495 173.645 26.155 173.335 25.725C173.025 25.285 172.865 24.78 172.855 24.21H174.31C174.36 24.7 174.56 25.115 174.91 25.455C175.27 25.785 175.79 25.95 176.47 25.95C177.12 25.95 177.63 25.79 178 25.47C178.38 25.14 178.57 24.72 178.57 24.21C178.57 23.81 178.46 23.485 178.24 23.235C178.02 22.985 177.745 22.795 177.415 22.665C177.085 22.535 176.64 22.395 176.08 22.245C175.39 22.065 174.835 21.885 174.415 21.705C174.005 21.525 173.65 21.245 173.35 20.865C173.06 20.475 172.915 19.955 172.915 19.305C172.915 18.735 173.06 18.23 173.35 17.79C173.64 17.35 174.045 17.01 174.565 16.77C175.095 16.53 175.7 16.41 176.38 16.41C177.36 16.41 178.16 16.655 178.78 17.145C179.41 17.635 179.765 18.285 179.845 19.095H178.345C178.295 18.695 178.085 18.345 177.715 18.045C177.345 17.735 176.855 17.58 176.245 17.58C175.675 17.58 175.21 17.73 174.85 18.03C174.49 18.32 174.31 18.73 174.31 19.26C174.31 19.64 174.415 19.95 174.625 20.19C174.845 20.43 175.11 20.615 175.42 20.745C175.74 20.865 176.185 21.005 176.755 21.165C177.445 21.355 178 21.545 178.42 21.735C178.84 21.915 179.2 22.2 179.5 22.59C179.8 22.97 179.95 23.49 179.95 24.15C179.95 24.66 179.815 25.14 179.545 25.59C179.275 26.04 178.875 26.405 178.345 26.685C177.815 26.965 177.19 27.105 176.47 27.105Z" fill="black"/>
<path d="M194.825 84L190.52 88.77V84H189.155V94.455H190.52V89.61L194.84 94.455H196.565L191.825 89.22L196.61 84H194.825Z" fill="black"/>
<path d="M273.895 36.78L276.46 45H277.87L279.85 38.475L281.83 45H283.24L285.82 36.78H284.425L282.535 43.68L280.495 36.78H279.1L277.105 43.695L275.245 36.78H273.895Z" fill="black"/>
<path d="M116.39 22.615C116.77 22.675 117.115 22.83 117.425 23.08C117.745 23.33 117.995 23.64 118.175 24.01C118.365 24.38 118.46 24.775 118.46 25.195C118.46 25.725 118.325 26.205 118.055 26.635C117.785 27.055 117.39 27.39 116.87 27.64C116.36 27.88 115.755 28 115.055 28H111.155V17.545H114.905C115.615 17.545 116.22 17.665 116.72 17.905C117.22 18.135 117.595 18.45 117.845 18.85C118.095 19.25 118.22 19.7 118.22 20.2C118.22 20.82 118.05 21.335 117.71 21.745C117.38 22.145 116.94 22.435 116.39 22.615ZM112.52 22.06H114.815C115.455 22.06 115.95 21.91 116.3 21.61C116.65 21.31 116.825 20.895 116.825 20.365C116.825 19.835 116.65 19.42 116.3 19.12C115.95 18.82 115.445 18.67 114.785 18.67H112.52V22.06ZM114.935 26.875C115.615 26.875 116.145 26.715 116.525 26.395C116.905 26.075 117.095 25.63 117.095 25.06C117.095 24.48 116.895 24.025 116.495 23.695C116.095 23.355 115.56 23.185 114.89 23.185H112.52V26.875H114.935Z" fill="black"/>
<line y1="-0.5" x2="115" y2="-0.5" transform="matrix(1 0 0 -1 103 50)" stroke="black"/>
<path d="M142.5 2V50" stroke="black"/>
<line y1="-0.5" x2="50" y2="-0.5" transform="matrix(0 -1 -1 0 218 51)" stroke="black"/>
<path d="M197.6 7.7H211.4C212.353 7.7 213.125 9.28491 213.125 11.24V39.56C213.125 41.5151 212.353 43.1 211.4 43.1H197.6C196.647 43.1 195.875 41.5151 195.875 39.56V11.24C195.875 9.28491 196.647 7.7 197.6 7.7Z" fill="white" stroke="black"/>
<path d="M197.025 19.5H211.975C212.61 19.5 213.125 20.5566 213.125 21.86V40.74C213.125 42.0434 212.61 43.1 211.975 43.1H197.025C196.39 43.1 195.875 42.0434 195.875 40.74V21.86C195.875 20.5566 196.39 19.5 197.025 19.5Z" fill="white" stroke="black"/>
<path d="M208.812 13.895C208.812 11.7317 207.375 10.65 204.5 10.65C201.625 10.65 200.188 11.7317 200.188 13.895C200.188 16.0583 201.625 17.14 204.5 17.14C207.375 17.14 208.812 16.0583 208.812 13.895Z" fill="white" stroke="black"/>
<path d="M148.6 7.7H162.4C163.353 7.7 164.125 9.28491 164.125 11.24V39.56C164.125 41.5151 163.353 43.1 162.4 43.1H148.6C147.647 43.1 146.875 41.5151 146.875 39.56V11.24C146.875 9.28491 147.647 7.7 148.6 7.7Z" fill="white" stroke="black"/>
<path d="M148.025 19.5H162.975C163.61 19.5 164.125 20.5566 164.125 21.86V40.74C164.125 42.0434 163.61 43.1 162.975 43.1H148.025C147.39 43.1 146.875 42.0434 146.875 40.74V21.86C146.875 20.5566 147.39 19.5 148.025 19.5Z" fill="white" stroke="black"/>
<path d="M159.812 13.895C159.812 11.7317 158.375 10.65 155.5 10.65C152.625 10.65 151.188 11.7317 151.188 13.895C151.188 16.0583 152.625 17.14 155.5 17.14C158.375 17.14 159.812 16.0583 159.812 13.895Z" fill="white" stroke="black"/>
<rect x="-0.25" y="0.25" width="21.5" height="21.5" transform="matrix(-1 0 0 1 102.5 6)" stroke="black" stroke-width="0.5"/>
<g clip-path="url(#clip0_1_116)">
<path d="M84.0048 9.60276V11.2489C83.7586 11.505 83.3997 11.6662 83 11.6662V9.18576C83.3997 9.18576 83.7586 9.34699 84.0048 9.60276Z" fill="black"/>
<path d="M92.4577 13.4517C92.5589 13.6212 92.4924 13.8342 92.3084 13.9279L87.9028 16.1706C87.7191 16.2638 87.4881 16.2022 87.3866 16.0326L87.2108 15.738L92.2818 13.1571L92.4577 13.4517Z" fill="black"/>
<path d="M87.9821 12.8458L87.8357 12.601C87.7607 12.4755 87.8101 12.3175 87.9463 12.2482L88.6918 11.8687C88.828 11.7993 88.999 11.845 89.0739 11.9707L89.2203 12.2157C90.2771 11.9509 91.4138 12.2475 92.1634 12.9818L87.1133 15.5522C86.8409 14.5751 87.1756 13.5296 87.9821 12.8458Z" fill="black"/>
<path d="M95.9599 17C96.0458 17.1442 95.9892 17.3251 95.8333 17.4045C95.6771 17.484 95.4811 17.4315 95.395 17.2876C95.309 17.1437 95.4 16.6793 95.4 16.6793C95.4 16.6793 95.8739 16.8561 95.9599 17Z" fill="black"/>
<path d="M94.3033 17.8433C94.3893 17.9872 94.3325 18.1684 94.1766 18.2476C94.0204 18.327 93.8246 18.2748 93.7386 18.1307C93.6526 17.9868 93.7434 17.5226 93.7434 17.5226C93.7434 17.5226 94.2172 17.6992 94.3033 17.8433Z" fill="black"/>
<path d="M92.6468 18.6863C92.7326 18.8303 92.6758 19.0114 92.5199 19.0909C92.364 19.1703 92.1677 19.1181 92.0817 18.9739C91.9957 18.83 92.0869 18.3658 92.0869 18.3658C92.0869 18.3656 92.5608 18.5424 92.6468 18.6863Z" fill="black"/>
<path d="M90.9899 19.5296C91.0759 19.6735 91.0194 19.8547 90.8635 19.9341C90.7075 20.0136 90.5113 19.9611 90.4252 19.817C90.3392 19.6731 90.4302 19.2089 90.4302 19.2089C90.4302 19.2089 90.9039 19.3857 90.9899 19.5296Z" fill="black"/>
<path d="M89.3334 20.3729C89.4195 20.5168 89.3629 20.698 89.2068 20.7772C89.0509 20.8566 88.8546 20.8042 88.7686 20.6602C88.6828 20.5163 88.7735 20.0521 88.7735 20.0521C88.7735 20.0521 89.2474 20.229 89.3334 20.3729Z" fill="black"/>
<path d="M94.1816 16.4479C94.0257 16.5273 93.8294 16.4748 93.7433 16.3309C93.6573 16.1868 93.7483 15.7226 93.7483 15.7226C93.7483 15.7226 94.2222 15.8994 94.3082 16.0433C94.394 16.1875 94.3375 16.3684 94.1816 16.4479Z" fill="black"/>
<path d="M92.5249 17.2911C92.369 17.3705 92.1729 17.3181 92.0869 17.174C92.0009 17.0301 92.0917 16.5659 92.0919 16.5659C92.0919 16.5659 92.5655 16.7427 92.6516 16.8866C92.7376 17.0305 92.681 17.2117 92.5249 17.2911Z" fill="black"/>
<path d="M90.8682 18.1342C90.7123 18.2136 90.5163 18.1614 90.4302 18.0173C90.3442 17.8733 90.4352 17.4091 90.4352 17.4091C90.4352 17.4091 90.9091 17.5857 90.9951 17.7299C91.0812 17.8738 91.0244 18.0548 90.8682 18.1342Z" fill="black"/>
<path d="M89.2118 18.9774C89.0559 19.0567 88.8596 19.0044 88.7735 18.8605C88.6875 18.7166 88.7788 18.2524 88.7788 18.2524C88.7788 18.2524 89.2524 18.429 89.3384 18.5729C89.4245 18.7168 89.3677 18.898 89.2118 18.9774Z" fill="black"/>
<path d="M92.1739 15.5114C92.0879 15.3674 92.1787 14.9033 92.1787 14.9033C92.1787 14.9033 92.6525 15.0799 92.7385 15.224C92.8246 15.3681 92.768 15.5491 92.6121 15.6283C92.456 15.7077 92.2599 15.6555 92.1739 15.5114Z" fill="black"/>
<path d="M90.5172 16.3546C90.4312 16.2107 90.5222 15.7465 90.5222 15.7465C90.5222 15.7465 90.9961 15.9231 91.0821 16.0673C91.1681 16.2112 91.1113 16.3922 90.9552 16.4716C90.7993 16.551 90.603 16.4988 90.5172 16.3546Z" fill="black"/>
<path d="M88.8605 17.1979C88.7745 17.0538 88.8658 16.5896 88.8658 16.5896C88.8658 16.5896 89.3396 16.7664 89.4257 16.9103C89.5115 17.0542 89.4547 17.2354 89.2988 17.3148C89.1429 17.3942 88.9466 17.3418 88.8605 17.1979Z" fill="black"/>
<path d="M86.7768 10.3214C87.4513 10.5849 88.0237 11.0239 88.4285 11.5769C88.4439 11.598 88.4586 11.6195 88.4736 11.641L87.8205 11.9731C87.8205 11.9731 87.8203 11.9734 87.8201 11.9735C87.6024 11.6728 87.3229 11.4128 86.9983 11.2106C86.5173 10.9107 85.94 10.7363 85.3152 10.7359H84.3332V10.049H85.3152C85.8328 10.049 86.3276 10.146 86.7768 10.3214Z" fill="black"/>
</g>
<path d="M135.41 7.23527C135.41 7.14486 135.324 7.07235 135.218 7.07235C135.111 7.07235 135.025 7.14575 135.025 7.23527V10.2189C135.025 10.3093 135.112 10.3818 135.218 10.3818H137.501C137.607 10.3827 137.693 10.3093 137.693 10.2198V5.35091C137.693 5.25513 137.647 5.1674 137.572 5.10295L137.571 5.10205C137.495 5.03939 137.392 5 137.278 5H135.44C135.327 5 135.222 5.03939 135.147 5.10384C135.072 5.1674 135.025 5.25513 135.025 5.35181V5.76538C135.025 5.85579 135.112 5.9283 135.218 5.9283C135.325 5.9283 135.41 5.8549 135.41 5.76538V5.35091C135.41 5.34465 135.414 5.33838 135.419 5.33301C135.424 5.32853 135.432 5.32585 135.44 5.32585H137.278C137.286 5.32585 137.294 5.32853 137.299 5.33301L137.3 5.3339C137.305 5.33838 137.308 5.34465 137.308 5.35181V10.0569H135.41V7.23527ZM135.411 13.9411L137.671 10.295C137.72 10.2153 137.684 10.1178 137.59 10.0757C137.561 10.0632 137.531 10.0569 137.501 10.0569V10.056H127.5C127.393 10.056 127.308 10.1294 127.308 10.2189C127.308 10.2252 127.308 10.2314 127.309 10.2377C127.363 12.1838 128.49 12.7317 129.439 13.1918C129.994 13.4613 130.479 13.6967 130.57 14.1953L130.571 14.1998C130.606 14.3949 130.587 14.6187 130.514 14.8721C130.438 15.1361 130.304 15.4333 130.108 15.7637C130.06 15.8442 130.1 15.9418 130.195 15.9821C130.222 15.9937 130.252 15.9991 130.28 15.9991H136.317C136.424 15.9991 136.51 15.9257 136.51 15.8362C136.51 15.8048 136.499 15.7753 136.48 15.7502L135.411 13.9411ZM137.182 10.3827L135.025 13.8641C134.998 13.9089 134.996 13.9635 135.024 14.0118L136.006 15.6742H130.585C130.723 15.4154 130.823 15.1737 130.888 14.95C130.973 14.6527 130.995 14.3869 130.952 14.1523L130.951 14.147C130.832 13.4935 130.271 13.2214 129.631 12.9107C128.793 12.5043 127.802 12.0227 127.699 10.3836H137.182V10.3827ZM135.196 14.1022C135.302 14.1022 135.388 14.0288 135.388 13.9393C135.388 13.8489 135.301 13.7764 135.196 13.7764H133.091C132.985 13.7764 132.899 13.8498 132.899 13.9393C132.899 14.0297 132.986 14.1022 133.091 14.1022H135.196ZM135.026 10.244C135.042 10.3326 135.141 10.3944 135.245 10.3809C135.35 10.3675 135.423 10.2843 135.407 10.1956C135.377 10.0273 135.327 9.87516 135.257 9.74178C135.184 9.60303 135.09 9.48576 134.975 9.38997C134.6 9.08024 134.124 9.0874 133.669 9.09456C133.629 9.09546 133.59 9.09546 133.487 9.09546H129.365C128.388 9.09009 127.304 9.08382 127.31 10.2592C127.31 10.3487 127.395 10.4212 127.501 10.4212C127.607 10.4212 127.693 10.3487 127.693 10.2592C127.688 9.41056 128.569 9.41593 129.362 9.42041C129.482 9.4213 129.479 9.4222 129.549 9.4222H133.486L133.674 9.41951C134.051 9.41414 134.446 9.40788 134.706 9.62362C134.787 9.69075 134.853 9.77401 134.906 9.87337C134.961 9.97721 135.001 10.1007 135.026 10.244ZM136.072 5.99992C135.772 5.99992 135.53 6.20492 135.53 6.45825C135.53 6.71159 135.772 6.91659 136.072 6.91659C136.371 6.91659 136.613 6.71159 136.613 6.45825C136.613 6.20492 136.37 5.99992 136.072 5.99992ZM135.53 6.62118C135.637 6.62118 135.722 6.54777 135.722 6.45825C135.722 6.36784 135.636 6.29533 135.53 6.29533H134.231C134.124 6.29533 134.038 6.36873 134.038 6.45825C134.038 6.54867 134.125 6.62118 134.231 6.62118H135.53Z" fill="black"/>
<mask id="path-37-inside-1_1_116" fill="white">
<path d="M54.3514 82.6342H9.69545V80.7183C9.69545 80.2548 9.7814 79.824 9.93375 79.4384C10.0978 79.0281 10.34 78.663 10.6408 78.3471C10.8245 78.1543 11.0315 77.9779 11.2542 77.822C11.4808 77.662 11.723 77.5225 11.9769 77.4035C12.6605 77.2476 13.3403 77.1 14.0161 76.9605C14.6959 76.821 15.3795 76.6897 16.0671 76.5666C16.0983 76.5625 16.1218 76.5584 16.153 76.5502C16.5007 76.4887 16.8328 76.4313 17.1492 76.3779C17.4656 76.3246 17.8016 76.2713 18.1532 76.2138H18.161C20.5518 75.8938 22.9348 75.6477 25.3139 75.4836C27.6969 75.3195 30.0682 75.2374 32.4239 75.2333C33.8224 75.2333 35.2171 75.258 36.6117 75.3154C37.9985 75.3728 39.3932 75.4549 40.7878 75.5697H40.7956C42.1004 75.6969 43.4013 75.8569 44.7061 76.0415C46.007 76.2261 47.3118 76.4436 48.6244 76.6856L48.7689 76.7225C48.7963 76.7307 48.8236 76.7348 48.8471 76.7348C48.8705 76.7389 48.894 76.7389 48.9174 76.7389C49.5307 76.8538 50.1597 76.981 50.8082 77.1164C51.4371 77.2476 52.0661 77.3871 52.6911 77.5307C52.8474 77.621 52.9958 77.7235 53.1365 77.8302C53.2771 77.941 53.4139 78.0599 53.535 78.1871C53.7967 78.462 54.0037 78.7779 54.1444 79.1307C54.2772 79.463 54.3514 79.8322 54.3514 80.2342V82.6342ZM50.4527 55H14.1255C13.6528 55 13.1996 55.0985 12.7855 55.279C12.3558 55.4677 11.9691 55.7425 11.6448 56.0789C11.3206 56.4195 11.0588 56.8256 10.8831 57.2769C10.7112 57.7117 10.6174 58.1876 10.6174 58.684V76.1974C10.4182 76.3205 10.2228 76.4559 10.0431 76.6036C9.84 76.7677 9.64857 76.94 9.47278 77.1246C9.01962 77.6005 8.6524 78.1543 8.40629 78.7779C8.17189 79.3645 8.04297 80.0168 8.04297 80.7224V83.2208C8.03125 83.2619 8.01954 83.3029 8.01172 83.3439V83.3521C8.00391 83.4054 8 83.4547 8 83.5039C8 83.5572 8.00391 83.6106 8.01563 83.6639C8.02344 83.7049 8.03516 83.7459 8.04688 83.787V95.1344C8.04688 95.3723 8.14064 95.5898 8.28909 95.7456C8.43754 95.9015 8.64459 96 8.87117 96H10.5705C10.7619 96 10.9377 95.9303 11.0784 95.8154C11.219 95.7005 11.3245 95.5364 11.3675 95.3477C11.68 94.4041 11.9964 93.6575 12.3363 93.0749C12.6723 92.5006 13.0317 92.0904 13.4458 91.7991C13.8638 91.5078 14.3638 91.3232 14.9693 91.2124C15.5866 91.0976 16.3054 91.0606 17.1609 91.0647L48.3197 91.1058H48.3353C48.9486 91.0935 49.4526 91.1755 49.8745 91.3478C50.2925 91.5201 50.6324 91.7786 50.9136 92.1109C51.2301 92.4801 51.4957 92.9519 51.7379 93.5016C51.984 94.0636 52.2067 94.7036 52.4294 95.4051C52.4841 95.5856 52.5935 95.7292 52.7302 95.8318C52.8591 95.9303 53.0154 95.9877 53.1756 95.9959C53.1873 96 53.199 96 53.2107 96H55.1757C55.4023 96 55.6093 95.9015 55.7578 95.7456C55.9062 95.5898 56 95.3723 56 95.1344V80.2383C56 79.5943 55.8828 79.0035 55.6718 78.4702C55.4453 77.904 55.1132 77.3994 54.6991 76.9646C54.5819 76.8415 54.453 76.7184 54.3163 76.6036C54.1991 76.5051 54.0819 76.4107 53.9569 76.3246V58.6471C53.9569 58.1507 53.8631 57.6789 53.6912 57.2523C53.5115 56.8051 53.2498 56.403 52.9255 56.0666C52.6013 55.7302 52.2145 55.4636 51.7887 55.279C51.3746 55.0985 50.9254 55 50.4527 55ZM14.1255 56.7312H50.4527C50.7066 56.7312 50.9488 56.7846 51.1715 56.8789C51.402 56.9774 51.6051 57.121 51.777 57.2974C51.945 57.4697 52.0817 57.683 52.1755 57.9127C52.2614 58.1384 52.3083 58.3845 52.3083 58.6471V75.4918C52.1911 75.4508 52.0739 75.4179 51.9528 75.3851C51.7614 75.3318 51.57 75.2867 51.3785 75.2539C51.1129 75.2046 50.8238 75.1513 50.5113 75.0939C50.2769 75.0528 50.0269 75.0077 49.769 74.9667V70.6673C49.769 70.0191 49.644 69.3996 49.4213 68.8335C49.1869 68.2427 48.8471 67.7135 48.4252 67.2705C48.0033 66.8274 47.4993 66.4705 46.9368 66.2243C46.3977 65.9905 45.8078 65.8592 45.1905 65.8592H37.4477C36.8305 65.8592 36.2406 65.9905 35.7015 66.2243C35.1389 66.4705 34.635 66.8274 34.2131 67.2705C33.7912 67.7135 33.4513 68.2427 33.2169 68.8335C32.9942 69.3996 32.8692 70.0191 32.8692 70.6673V73.4118C32.5958 73.4077 32.3223 73.4077 32.0449 73.4077V70.6673C32.0449 70.0191 31.9199 69.3996 31.6972 68.8335C31.4628 68.2427 31.123 67.7135 30.7011 67.2705C30.2792 66.8274 29.7752 66.4705 29.2127 66.2243C28.6736 65.9905 28.0837 65.8592 27.4664 65.8592H19.7236C19.1064 65.8592 18.5165 65.9905 17.9774 66.2243C17.4148 66.4705 16.9109 66.8274 16.489 67.2705C16.0671 67.7135 15.7272 68.2427 15.4928 68.8335C15.2701 69.3996 15.1451 70.0191 15.1451 70.6673V74.9092C14.8521 74.9544 14.5396 75.0077 14.2036 75.0651C13.8325 75.1267 13.477 75.1882 13.1332 75.2497C12.9574 75.2826 12.7777 75.3195 12.598 75.3646C12.4847 75.3933 12.3754 75.4221 12.2699 75.4549V58.684C12.2699 58.4215 12.3207 58.1712 12.4105 57.9415C12.5043 57.7035 12.6449 57.4902 12.8168 57.3056C12.9887 57.1251 13.1957 56.9774 13.4184 56.8789C13.6372 56.7846 13.8755 56.7312 14.1255 56.7312ZM39.1197 73.6908C38.3345 73.6293 37.5454 73.5759 36.7445 73.5349C36.0062 73.4939 35.26 73.4652 34.5139 73.4447V70.6673C34.5139 70.253 34.592 69.855 34.7366 69.494C34.885 69.1166 35.1038 68.7802 35.3772 68.493C35.6468 68.2099 35.971 67.9802 36.3304 67.8202C36.6742 67.6684 37.0531 67.5864 37.4477 67.5864H45.1905C45.5851 67.5864 45.964 67.6684 46.3078 67.8202C46.6672 67.9761 46.9875 68.2058 47.261 68.493C47.5306 68.7761 47.7493 69.1166 47.9017 69.494C48.0462 69.855 48.1244 70.253 48.1244 70.6673V74.6918C47.4915 74.5934 46.8508 74.5031 46.1945 74.4128C45.4874 74.3185 44.7842 74.2323 44.0889 74.1503C43.8193 74.1175 43.5302 74.0805 43.2294 74.0477C42.9482 74.0149 42.6552 73.9862 42.3426 73.9534C41.8113 73.9 41.284 73.8508 40.7644 73.8057C40.2292 73.7688 39.6823 73.7277 39.1197 73.6908ZM30.3964 73.4201C29.9237 73.4283 29.451 73.4406 28.9783 73.457C28.4548 73.4734 27.9313 73.498 27.4117 73.5226H27.4078C26.5523 73.5554 25.7163 73.5965 24.9037 73.6457C24.0912 73.6949 23.2981 73.7565 22.5402 73.8262C21.4386 73.9288 20.3721 74.0518 19.3603 74.1954C18.454 74.3267 17.5945 74.4744 16.7898 74.6385V70.6673C16.7898 70.253 16.8679 69.855 17.0125 69.494C17.1609 69.1166 17.3797 68.7802 17.6531 68.493C17.9227 68.2099 18.2469 67.9802 18.6063 67.8202C18.9501 67.6684 19.329 67.5864 19.7236 67.5864H27.4625C27.8571 67.5864 28.236 67.6684 28.5798 67.8202C28.9392 67.9761 29.2595 68.2058 29.533 68.493C29.8026 68.7761 30.0213 69.1166 30.1737 69.494C30.3182 69.855 30.3964 70.253 30.3964 70.6673V73.4201ZM9.69155 84.3695H54.3514V94.2688H53.7928C53.574 93.6206 53.3474 93.0175 53.0935 92.4801C52.8201 91.9057 52.5114 91.397 52.1364 90.9581C51.6911 90.433 51.1676 90.0268 50.5386 89.7561C49.9097 89.4894 49.1752 89.354 48.2923 89.3745L17.1609 89.3335C16.1569 89.3335 15.2975 89.3827 14.5474 89.5345C13.7856 89.6863 13.1293 89.9448 12.5394 90.355C11.9925 90.7365 11.5237 91.2411 11.1018 91.9016C10.6994 92.5334 10.34 93.3088 9.99626 94.2647H9.69936V84.3695H9.69155Z"/>
</mask>
<path d="M54.3514 82.6342H9.69545V80.7183C9.69545 80.2548 9.7814 79.824 9.93375 79.4384C10.0978 79.0281 10.34 78.663 10.6408 78.3471C10.8245 78.1543 11.0315 77.9779 11.2542 77.822C11.4808 77.662 11.723 77.5225 11.9769 77.4035C12.6605 77.2476 13.3403 77.1 14.0161 76.9605C14.6959 76.821 15.3795 76.6897 16.0671 76.5666C16.0983 76.5625 16.1218 76.5584 16.153 76.5502C16.5007 76.4887 16.8328 76.4313 17.1492 76.3779C17.4656 76.3246 17.8016 76.2713 18.1532 76.2138H18.161C20.5518 75.8938 22.9348 75.6477 25.3139 75.4836C27.6969 75.3195 30.0682 75.2374 32.4239 75.2333C33.8224 75.2333 35.2171 75.258 36.6117 75.3154C37.9985 75.3728 39.3932 75.4549 40.7878 75.5697H40.7956C42.1004 75.6969 43.4013 75.8569 44.7061 76.0415C46.007 76.2261 47.3118 76.4436 48.6244 76.6856L48.7689 76.7225C48.7963 76.7307 48.8236 76.7348 48.8471 76.7348C48.8705 76.7389 48.894 76.7389 48.9174 76.7389C49.5307 76.8538 50.1597 76.981 50.8082 77.1164C51.4371 77.2476 52.0661 77.3871 52.6911 77.5307C52.8474 77.621 52.9958 77.7235 53.1365 77.8302C53.2771 77.941 53.4139 78.0599 53.535 78.1871C53.7967 78.462 54.0037 78.7779 54.1444 79.1307C54.2772 79.463 54.3514 79.8322 54.3514 80.2342V82.6342ZM50.4527 55H14.1255C13.6528 55 13.1996 55.0985 12.7855 55.279C12.3558 55.4677 11.9691 55.7425 11.6448 56.0789C11.3206 56.4195 11.0588 56.8256 10.8831 57.2769C10.7112 57.7117 10.6174 58.1876 10.6174 58.684V76.1974C10.4182 76.3205 10.2228 76.4559 10.0431 76.6036C9.84 76.7677 9.64857 76.94 9.47278 77.1246C9.01962 77.6005 8.6524 78.1543 8.40629 78.7779C8.17189 79.3645 8.04297 80.0168 8.04297 80.7224V83.2208C8.03125 83.2619 8.01954 83.3029 8.01172 83.3439V83.3521C8.00391 83.4054 8 83.4547 8 83.5039C8 83.5572 8.00391 83.6106 8.01563 83.6639C8.02344 83.7049 8.03516 83.7459 8.04688 83.787V95.1344C8.04688 95.3723 8.14064 95.5898 8.28909 95.7456C8.43754 95.9015 8.64459 96 8.87117 96H10.5705C10.7619 96 10.9377 95.9303 11.0784 95.8154C11.219 95.7005 11.3245 95.5364 11.3675 95.3477C11.68 94.4041 11.9964 93.6575 12.3363 93.0749C12.6723 92.5006 13.0317 92.0904 13.4458 91.7991C13.8638 91.5078 14.3638 91.3232 14.9693 91.2124C15.5866 91.0976 16.3054 91.0606 17.1609 91.0647L48.3197 91.1058H48.3353C48.9486 91.0935 49.4526 91.1755 49.8745 91.3478C50.2925 91.5201 50.6324 91.7786 50.9136 92.1109C51.2301 92.4801 51.4957 92.9519 51.7379 93.5016C51.984 94.0636 52.2067 94.7036 52.4294 95.4051C52.4841 95.5856 52.5935 95.7292 52.7302 95.8318C52.8591 95.9303 53.0154 95.9877 53.1756 95.9959C53.1873 96 53.199 96 53.2107 96H55.1757C55.4023 96 55.6093 95.9015 55.7578 95.7456C55.9062 95.5898 56 95.3723 56 95.1344V80.2383C56 79.5943 55.8828 79.0035 55.6718 78.4702C55.4453 77.904 55.1132 77.3994 54.6991 76.9646C54.5819 76.8415 54.453 76.7184 54.3163 76.6036C54.1991 76.5051 54.0819 76.4107 53.9569 76.3246V58.6471C53.9569 58.1507 53.8631 57.6789 53.6912 57.2523C53.5115 56.8051 53.2498 56.403 52.9255 56.0666C52.6013 55.7302 52.2145 55.4636 51.7887 55.279C51.3746 55.0985 50.9254 55 50.4527 55ZM14.1255 56.7312H50.4527C50.7066 56.7312 50.9488 56.7846 51.1715 56.8789C51.402 56.9774 51.6051 57.121 51.777 57.2974C51.945 57.4697 52.0817 57.683 52.1755 57.9127C52.2614 58.1384 52.3083 58.3845 52.3083 58.6471V75.4918C52.1911 75.4508 52.0739 75.4179 51.9528 75.3851C51.7614 75.3318 51.57 75.2867 51.3785 75.2539C51.1129 75.2046 50.8238 75.1513 50.5113 75.0939C50.2769 75.0528 50.0269 75.0077 49.769 74.9667V70.6673C49.769 70.0191 49.644 69.3996 49.4213 68.8335C49.1869 68.2427 48.8471 67.7135 48.4252 67.2705C48.0033 66.8274 47.4993 66.4705 46.9368 66.2243C46.3977 65.9905 45.8078 65.8592 45.1905 65.8592H37.4477C36.8305 65.8592 36.2406 65.9905 35.7015 66.2243C35.1389 66.4705 34.635 66.8274 34.2131 67.2705C33.7912 67.7135 33.4513 68.2427 33.2169 68.8335C32.9942 69.3996 32.8692 70.0191 32.8692 70.6673V73.4118C32.5958 73.4077 32.3223 73.4077 32.0449 73.4077V70.6673C32.0449 70.0191 31.9199 69.3996 31.6972 68.8335C31.4628 68.2427 31.123 67.7135 30.7011 67.2705C30.2792 66.8274 29.7752 66.4705 29.2127 66.2243C28.6736 65.9905 28.0837 65.8592 27.4664 65.8592H19.7236C19.1064 65.8592 18.5165 65.9905 17.9774 66.2243C17.4148 66.4705 16.9109 66.8274 16.489 67.2705C16.0671 67.7135 15.7272 68.2427 15.4928 68.8335C15.2701 69.3996 15.1451 70.0191 15.1451 70.6673V74.9092C14.8521 74.9544 14.5396 75.0077 14.2036 75.0651C13.8325 75.1267 13.477 75.1882 13.1332 75.2497C12.9574 75.2826 12.7777 75.3195 12.598 75.3646C12.4847 75.3933 12.3754 75.4221 12.2699 75.4549V58.684C12.2699 58.4215 12.3207 58.1712 12.4105 57.9415C12.5043 57.7035 12.6449 57.4902 12.8168 57.3056C12.9887 57.1251 13.1957 56.9774 13.4184 56.8789C13.6372 56.7846 13.8755 56.7312 14.1255 56.7312ZM39.1197 73.6908C38.3345 73.6293 37.5454 73.5759 36.7445 73.5349C36.0062 73.4939 35.26 73.4652 34.5139 73.4447V70.6673C34.5139 70.253 34.592 69.855 34.7366 69.494C34.885 69.1166 35.1038 68.7802 35.3772 68.493C35.6468 68.2099 35.971 67.9802 36.3304 67.8202C36.6742 67.6684 37.0531 67.5864 37.4477 67.5864H45.1905C45.5851 67.5864 45.964 67.6684 46.3078 67.8202C46.6672 67.9761 46.9875 68.2058 47.261 68.493C47.5306 68.7761 47.7493 69.1166 47.9017 69.494C48.0462 69.855 48.1244 70.253 48.1244 70.6673V74.6918C47.4915 74.5934 46.8508 74.5031 46.1945 74.4128C45.4874 74.3185 44.7842 74.2323 44.0889 74.1503C43.8193 74.1175 43.5302 74.0805 43.2294 74.0477C42.9482 74.0149 42.6552 73.9862 42.3426 73.9534C41.8113 73.9 41.284 73.8508 40.7644 73.8057C40.2292 73.7688 39.6823 73.7277 39.1197 73.6908ZM30.3964 73.4201C29.9237 73.4283 29.451 73.4406 28.9783 73.457C28.4548 73.4734 27.9313 73.498 27.4117 73.5226H27.4078C26.5523 73.5554 25.7163 73.5965 24.9037 73.6457C24.0912 73.6949 23.2981 73.7565 22.5402 73.8262C21.4386 73.9288 20.3721 74.0518 19.3603 74.1954C18.454 74.3267 17.5945 74.4744 16.7898 74.6385V70.6673C16.7898 70.253 16.8679 69.855 17.0125 69.494C17.1609 69.1166 17.3797 68.7802 17.6531 68.493C17.9227 68.2099 18.2469 67.9802 18.6063 67.8202C18.9501 67.6684 19.329 67.5864 19.7236 67.5864H27.4625C27.8571 67.5864 28.236 67.6684 28.5798 67.8202C28.9392 67.9761 29.2595 68.2058 29.533 68.493C29.8026 68.7761 30.0213 69.1166 30.1737 69.494C30.3182 69.855 30.3964 70.253 30.3964 70.6673V73.4201ZM9.69155 84.3695H54.3514V94.2688H53.7928C53.574 93.6206 53.3474 93.0175 53.0935 92.4801C52.8201 91.9057 52.5114 91.397 52.1364 90.9581C51.6911 90.433 51.1676 90.0268 50.5386 89.7561C49.9097 89.4894 49.1752 89.354 48.2923 89.3745L17.1609 89.3335C16.1569 89.3335 15.2975 89.3827 14.5474 89.5345C13.7856 89.6863 13.1293 89.9448 12.5394 90.355C11.9925 90.7365 11.5237 91.2411 11.1018 91.9016C10.6994 92.5334 10.34 93.3088 9.99626 94.2647H9.69936V84.3695H9.69155Z" fill="black" stroke="black" stroke-width="2" mask="url(#path-37-inside-1_1_116)"/>
<rect x="-0.5" y="0.5" width="104" height="26" transform="matrix(-1 0 0 1 246 72)" stroke="black"/>
<line y1="-2" x2="26" y2="-2" transform="matrix(-1 0 0 1 209 103)" stroke="black" stroke-width="4"/>
<mask id="path-40-inside-2_1_116" fill="white">
<path d="M131 100V101H135H139V100H131Z"/>
</mask>
<path d="M131 100V101H135H139V100H131Z" fill="black"/>
<path d="M131 101H130V102H131V101ZM131 100V99H130V100H131ZM139 100H140V99H139V100ZM139 101V102H140V101H139ZM131 101H132V100H131H130V101H131ZM131 100V101H139V100V99H131V100ZM139 100H138V101H139H140V100H139ZM139 101V100H135V101V102H139V101ZM135 101V100H131V101V102H135V101Z" fill="black" mask="url(#path-40-inside-2_1_116)"/>
<mask id="path-42-inside-3_1_116" fill="white">
<path d="M107 100V101H111H115V100H107Z"/>
</mask>
<path d="M107 100V101H111H115V100H107Z" fill="black"/>
<path d="M107 101H106V102H107V101ZM107 100V99H106V100H107ZM115 100H116V99H115V100ZM115 101V102H116V101H115ZM107 101H108V100H107H106V101H107ZM107 100V101H115V100V99H107V100ZM115 100H114V101H115H116V100H115ZM115 101V100H111V101V102H115V101ZM111 101V100H107V101V102H111V101Z" fill="black" mask="url(#path-42-inside-3_1_116)"/>
<path d="M135 124.05V100" stroke="black"/>
<path d="M135 123.634C131.147 124.235 127.139 124.094 123.387 123.227C119.635 122.359 116.274 120.795 113.648 118.695C111.022 116.596 109.225 114.036 108.442 111.278" stroke="black" stroke-dasharray="4 4"/>
<mask id="path-46-inside-4_1_116" fill="white">
<path d="M280 100V101H284H288V100H280Z"/>
</mask>
<path d="M280 100V101H284H288V100H280Z" fill="black"/>
<path d="M280 101H279V102H280V101ZM280 100V99H279V100H280ZM288 100H289V99H288V100ZM288 101V102H289V101H288ZM280 101H281V100H280H279V101H280ZM280 100V101H288V100V99H280V100ZM288 100H287V101H288H289V100H288ZM288 101V100H284V101V102H288V101ZM284 101V100H280V101V102H284V101Z" fill="black" mask="url(#path-46-inside-4_1_116)"/>
<mask id="path-48-inside-5_1_116" fill="white">
<path d="M256 100V101H260H264V100H256Z"/>
</mask>
<path d="M256 100V101H260H264V100H256Z" fill="black"/>
<path d="M256 101H255V102H256V101ZM256 100V99H255V100H256ZM264 100H265V99H264V100ZM264 101V102H265V101H264ZM256 101H257V100H256H255V101H256ZM256 100V101H264V100V99H256V100ZM264 100H263V101H264H265V100H264ZM264 101V100H260V101V102H264V101ZM260 101V100H256V101V102H260V101Z" fill="black" mask="url(#path-48-inside-5_1_116)"/>
<path d="M284 124.05V100" stroke="black"/>
<path d="M284 123.634C280.147 124.235 276.139 124.094 272.387 123.227C268.635 122.359 265.274 120.795 262.648 118.695C260.022 116.596 258.225 114.036 257.442 111.278" stroke="black" stroke-dasharray="4 4"/>
<mask id="path-52-inside-6_1_116" fill="white">
<path d="M288 100V101H284H280V100H288Z"/>
</mask>
<path d="M288 100V101H284H280V100H288Z" fill="black"/>
<path d="M288 101H289V102H288V101ZM288 100V99H289V100H288ZM280 100H279V99H280V100ZM280 101V102H279V101H280ZM288 101H287V100H288H289V101H288ZM288 100V101H280V100V99H288V100ZM280 100H281V101H280H279V100H280ZM280 101V100H284V101V102H280V101ZM284 101V100H288V101V102H284V101Z" fill="black" mask="url(#path-52-inside-6_1_116)"/>
<mask id="path-54-inside-7_1_116" fill="white">
<path d="M312 100V101H308H304V100H312Z"/>
</mask>
<path d="M312 100V101H308H304V100H312Z" fill="black"/>
<path d="M312 101H313V102H312V101ZM312 100V99H313V100H312ZM304 100H303V99H304V100ZM304 101V102H303V101H304ZM312 101H311V100H312H313V101H312ZM312 100V101H304V100V99H312V100ZM304 100H305V101H304H303V100H304ZM304 101V100H308V101V102H304V101ZM308 101V100H312V101V102H308V101Z" fill="black" mask="url(#path-54-inside-7_1_116)"/>
<path d="M284 124.05V100" stroke="black"/>
<path d="M284 123.634C287.853 124.235 291.861 124.094 295.613 123.227C299.365 122.359 302.726 120.795 305.352 118.695C307.978 116.596 309.775 114.036 310.558 111.278" stroke="black" stroke-dasharray="4 4"/>
</g>
<defs>
<filter id="filter0_d_1_116" x="0" y="0" width="328" height="132.444" filterUnits="userSpaceOnUse" color-interpolation-filters="sRGB">
<feFlood flood-opacity="0" result="BackgroundImageFix"/>
<feColorMatrix in="SourceAlpha" type="matrix" values="0 0 0 0 0 0 0 0 0 0 0 0 0 0 0 0 0 0 127 0" result="hardAlpha"/>
<feOffset dy="4"/>
<feGaussianBlur stdDeviation="2"/>
<feComposite in2="hardAlpha" operator="out"/>
<feColorMatrix type="matrix" values="0 0 0 0 0 0 0 0 0 0 0 0 0 0 0 0 0 0 0.25 0"/>
<feBlend mode="normal" in2="BackgroundImageFix" result="effect1_dropShadow_1_116"/>
<feBlend mode="normal" in="SourceGraphic" in2="effect1_dropShadow_1_116" result="shape"/>
</filter>
<clipPath id="clip0_1_116">
<rect width="13" height="12" fill="white" transform="matrix(-1 0 0 1 96 9)"/>
</clipPath>
</defs>
</svg>
